<svg xmlns="http://www.w3.org/2000/svg" xmlns:xlink="http://www.w3.org/1999/xlink" width="800" zoomAndPan="magnify" viewBox="0 0 600 599.999999" height="800" preserveAspectRatio="xMidYMid meet" version="1.0"><defs><clipPath id="d525a3a26d"><path d="M 10.460938 8.863281 L 499 8.863281 L 499 404 L 10.460938 404 Z M 10.460938 8.863281 " clip-rule="nonzero"/></clipPath><clipPath id="d0d2d56d53"><path d="M 100 193 L 589.460938 193 L 589.460938 587.863281 L 100 587.863281 Z M 100 193 " clip-rule="nonzero"/></clipPath></defs><g clip-path="url(#d525a3a26d)"><path fill="#ffffff" d="M 35.363281 403.292969 C 32.308594 403.292969 29.425781 401.414062 28.304688 398.371094 C 16.453125 366.222656 10.449219 332.546875 10.449219 298.285156 C 10.449219 220.976562 40.558594 148.289062 95.222656 93.613281 C 149.898438 38.9375 222.574219 8.835938 299.894531 8.835938 C 373.003906 8.835938 442.820312 36.183594 496.492188 85.847656 C 499.53125 88.664062 499.726562 93.417969 496.910156 96.472656 C 494.089844 99.523438 489.339844 99.707031 486.285156 96.890625 C 435.417969 49.796875 369.21875 23.875 299.910156 23.875 C 148.59375 23.875 25.496094 146.96875 25.496094 298.285156 C 25.496094 330.773438 31.1875 362.6875 42.425781 393.164062 C 43.863281 397.054688 41.863281 401.386719 37.976562 402.824219 C 37.113281 403.136719 36.226562 403.292969 35.363281 403.292969 Z M 35.363281 403.292969 " fill-opacity="1" fill-rule="nonzero"/></g><path fill="#ffffff" d="M 491.398438 98.871094 C 490.746094 98.871094 490.09375 98.792969 489.457031 98.613281 L 423.722656 80.992188 C 419.71875 79.921875 417.328125 75.796875 418.410156 71.789062 C 419.480469 67.78125 423.605469 65.394531 427.613281 66.476562 L 480.777344 80.71875 L 467.710938 31.941406 C 466.640625 27.933594 469.015625 23.808594 473.023438 22.738281 C 477.03125 21.667969 481.152344 24.042969 482.222656 28.050781 L 498.671875 89.410156 C 499.363281 92.007812 498.617188 94.773438 496.726562 96.667969 C 495.277344 98.101562 493.359375 98.871094 491.398438 98.871094 Z M 491.398438 98.871094 " fill-opacity="1" fill-rule="nonzero"/><g clip-path="url(#d0d2d56d53)"><path fill="#ffffff" d="M 299.910156 587.734375 C 226.804688 587.734375 156.988281 560.390625 103.316406 510.726562 C 100.273438 507.90625 100.078125 503.15625 102.898438 500.101562 C 105.71875 497.058594 110.46875 496.863281 113.523438 499.683594 C 164.398438 546.761719 230.589844 572.683594 299.894531 572.683594 C 451.210938 572.683594 574.308594 449.589844 574.308594 298.273438 C 574.308594 265.785156 568.617188 233.871094 557.378906 203.394531 C 555.945312 199.507812 557.941406 195.171875 561.832031 193.738281 C 565.734375 192.300781 570.054688 194.296875 571.488281 198.1875 C 583.339844 230.335938 589.34375 264.011719 589.34375 298.273438 C 589.34375 375.582031 559.234375 448.269531 504.570312 502.945312 C 449.90625 557.621094 377.21875 587.734375 299.910156 587.734375 Z M 299.910156 587.734375 " fill-opacity="1" fill-rule="nonzero"/></g><path fill="#ffffff" d="M 124.863281 574.09375 C 121.550781 574.09375 118.507812 571.875 117.609375 568.523438 L 101.160156 507.164062 C 100.46875 504.566406 101.214844 501.796875 103.105469 499.90625 C 105.011719 498.011719 107.777344 497.269531 110.363281 497.960938 L 176.09375 515.582031 C 180.101562 516.652344 182.492188 520.777344 181.40625 524.785156 C 180.335938 528.789062 176.210938 531.179688 172.207031 530.09375 L 119.042969 515.855469 L 132.109375 564.632812 C 133.179688 568.640625 130.804688 572.765625 126.796875 573.835938 C 126.15625 574.003906 125.503906 574.09375 124.863281 574.09375 Z M 124.863281 574.09375 " fill-opacity="1" fill-rule="nonzero"/><path fill="#ffffff" d="M 467.242188 482.324219 L 132.578125 482.324219 C 128.429688 482.324219 125.058594 478.957031 125.058594 474.804688 C 125.058594 470.65625 128.429688 467.289062 132.578125 467.289062 L 467.242188 467.289062 C 471.390625 467.289062 474.757812 470.65625 474.757812 474.804688 C 474.757812 478.957031 471.390625 482.324219 467.242188 482.324219 Z M 467.242188 482.324219 " fill-opacity="1" fill-rule="nonzero"/><path fill="#ffffff" d="M 197.972656 482.324219 L 150.316406 482.324219 C 146.167969 482.324219 142.796875 478.957031 142.796875 474.804688 L 142.796875 363.261719 C 142.796875 353.773438 150.527344 346.042969 160.015625 346.042969 L 188.273438 346.042969 C 197.761719 346.042969 205.488281 353.773438 205.488281 363.261719 L 205.488281 474.804688 C 205.488281 478.957031 202.121094 482.324219 197.972656 482.324219 Z M 157.835938 467.289062 L 190.453125 467.289062 L 190.453125 363.261719 C 190.453125 362.085938 189.460938 361.082031 188.273438 361.082031 L 160.015625 361.082031 C 158.839844 361.082031 157.835938 362.074219 157.835938 363.261719 Z M 157.835938 467.289062 " fill-opacity="1" fill-rule="nonzero"/><path fill="#ffffff" d="M 279.417969 482.324219 L 231.761719 482.324219 C 227.613281 482.324219 224.246094 478.957031 224.246094 474.804688 L 224.246094 306.535156 C 224.246094 297.046875 231.972656 289.320312 241.460938 289.320312 L 269.71875 289.320312 C 279.207031 289.320312 286.933594 297.046875 286.933594 306.535156 L 286.933594 474.820312 C 286.933594 478.957031 283.566406 482.324219 279.417969 482.324219 Z M 239.28125 467.289062 L 271.898438 467.289062 L 271.898438 306.535156 C 271.898438 305.359375 270.90625 304.355469 269.71875 304.355469 L 241.460938 304.355469 C 240.285156 304.355469 239.28125 305.347656 239.28125 306.535156 Z M 239.28125 467.289062 " fill-opacity="1" fill-rule="nonzero"/><path fill="#ffffff" d="M 360.863281 482.324219 L 313.210938 482.324219 C 309.058594 482.324219 305.691406 478.957031 305.691406 474.804688 L 305.691406 249.785156 C 305.691406 240.292969 313.417969 232.566406 322.90625 232.566406 L 351.164062 232.566406 C 360.65625 232.566406 368.382812 240.292969 368.382812 249.785156 L 368.382812 474.804688 C 368.382812 478.957031 365.015625 482.324219 360.863281 482.324219 Z M 320.726562 467.289062 L 353.34375 467.289062 L 353.34375 249.796875 C 353.34375 248.621094 352.355469 247.617188 351.164062 247.617188 L 322.90625 247.617188 C 321.734375 247.617188 320.726562 248.609375 320.726562 249.796875 Z M 320.726562 467.289062 " fill-opacity="1" fill-rule="nonzero"/><path fill="#ffffff" d="M 442.324219 482.324219 L 394.667969 482.324219 C 390.519531 482.324219 387.152344 478.957031 387.152344 474.804688 L 387.152344 193.058594 C 387.152344 183.570312 394.878906 175.84375 404.367188 175.84375 L 432.625 175.84375 C 442.113281 175.84375 449.839844 183.570312 449.839844 193.058594 L 449.839844 474.820312 C 449.839844 478.957031 446.472656 482.324219 442.324219 482.324219 Z M 402.1875 467.289062 L 434.804688 467.289062 L 434.804688 193.058594 C 434.804688 191.882812 433.8125 190.878906 432.625 190.878906 L 404.367188 190.878906 C 403.191406 190.878906 402.1875 191.871094 402.1875 193.058594 Z M 402.1875 467.289062 " fill-opacity="1" fill-rule="nonzero"/><path fill="#ffffff" d="M 180.519531 283.316406 C 177.609375 283.316406 174.828125 281.605469 173.613281 278.761719 C 171.96875 274.949219 173.746094 270.523438 177.558594 268.878906 C 315.429688 209.632812 376.433594 118.542969 377.035156 117.628906 C 379.320312 114.15625 383.964844 113.191406 387.4375 115.460938 C 390.910156 117.734375 391.875 122.394531 389.605469 125.863281 C 388.964844 126.84375 373.5 150.246094 340.253906 181.390625 C 309.738281 209.988281 257.761719 250.777344 183.496094 282.6875 C 182.503906 283.121094 181.5 283.316406 180.519531 283.316406 Z M 180.519531 283.316406 " fill-opacity="1" fill-rule="nonzero"/><path fill="#ffffff" d="M 353.425781 220.753906 C 352.652344 220.753906 351.859375 220.636719 351.085938 220.375 C 347.144531 219.085938 344.992188 214.84375 346.269531 210.902344 L 371.554688 133.511719 L 294.167969 158.796875 C 290.222656 160.089844 285.96875 157.933594 284.691406 153.980469 C 283.398438 150.039062 285.550781 145.78125 289.507812 144.503906 L 380.976562 114.613281 C 383.667969 113.738281 386.628906 114.445312 388.625 116.441406 C 390.625 118.4375 391.339844 121.402344 390.453125 124.089844 L 360.5625 215.558594 C 359.53125 218.746094 356.582031 220.753906 353.425781 220.753906 Z M 353.425781 220.753906 " fill-opacity="1" fill-rule="nonzero"/></svg>