<svg xmlns="http://www.w3.org/2000/svg" xmlns:xlink="http://www.w3.org/1999/xlink" width="800" zoomAndPan="magnify" viewBox="0 0 600 599.999999" height="800" preserveAspectRatio="xMidYMid meet" version="1.0"><defs><clipPath id="3604e61a79"><path d="M 9.8125 17.429688 L 58 17.429688 L 58 68 L 9.8125 68 Z M 9.8125 17.429688 " clip-rule="nonzero"/></clipPath><clipPath id="d73710a219"><path d="M 540 535 L 590.3125 535 L 590.3125 582.929688 L 540 582.929688 Z M 540 535 " clip-rule="nonzero"/></clipPath></defs><path fill="#ffffff" d="M 40.128906 64.851562 L 40.128906 559.191406 C 40.128906 562.621094 37.347656 565.398438 33.921875 565.398438 C 30.496094 565.398438 27.714844 562.621094 27.714844 559.191406 L 27.714844 64.851562 C 27.714844 61.421875 30.496094 58.644531 33.921875 58.644531 C 37.347656 58.644531 40.128906 61.421875 40.128906 64.851562 Z M 40.128906 64.851562 " fill-opacity="1" fill-rule="nonzero"/><path fill="#ffffff" d="M 33.8125 553.109375 L 553.597656 553.300781 C 557.023438 553.300781 559.800781 556.082031 559.800781 559.507812 C 559.800781 562.9375 557.019531 565.714844 553.59375 565.710938 L 33.808594 565.519531 C 30.382812 565.519531 27.605469 562.738281 27.605469 559.3125 C 27.605469 555.882812 30.386719 553.105469 33.8125 553.109375 Z M 33.8125 553.109375 " fill-opacity="1" fill-rule="nonzero"/><g clip-path="url(#3604e61a79)"><path fill="#ffffff" d="M 9.972656 66.898438 L 33.550781 67.070312 L 57.132812 67.246094 C 49.335938 50.648438 41.535156 34.046875 33.738281 17.449219 L 9.972656 66.898438 " fill-opacity="1" fill-rule="nonzero"/></g><g clip-path="url(#d73710a219)"><path fill="#ffffff" d="M 540.660156 582.59375 L 540.484375 559.015625 L 540.3125 535.4375 C 556.910156 543.234375 573.511719 551.03125 590.109375 558.828125 L 540.660156 582.59375 " fill-opacity="1" fill-rule="nonzero"/></g><path fill="#ffffff" d="M 71.207031 511.195312 L 439.222656 143.175781 C 441.648438 140.753906 445.578125 140.753906 448 143.175781 C 450.425781 145.597656 450.425781 149.527344 448 151.953125 L 79.980469 519.972656 C 77.558594 522.394531 73.628906 522.394531 71.207031 519.972656 C 68.78125 517.546875 68.78125 513.617188 71.207031 511.195312 Z M 71.207031 511.195312 " fill-opacity="1" fill-rule="nonzero"/><path fill="#ffffff" d="M 123.640625 374.769531 L 123.492188 376.953125 C 122.796875 381.355469 120.757812 384.878906 117.378906 387.515625 C 113.972656 390.152344 109.964844 391.222656 105.351562 390.726562 C 100.949219 390.027344 97.429688 387.988281 94.789062 384.609375 C 93.941406 383.515625 93.246094 382.324219 92.699219 381.035156 L 92.007812 379.050781 C 91.628906 377.683594 91.4375 376.253906 91.433594 374.769531 C 91.546875 370.207031 93.121094 366.410156 96.148438 363.382812 C 99.179688 360.351562 102.976562 358.78125 107.535156 358.664062 C 112.097656 358.78125 115.894531 360.351562 118.925781 363.382812 C 121.953125 366.410156 123.527344 370.207031 123.640625 374.769531 " fill-opacity="1" fill-rule="nonzero"/><path fill="#ffffff" d="M 266.199219 454.980469 L 266.050781 457.164062 C 265.742188 459.121094 265.167969 460.902344 264.324219 462.511719 C 263.160156 464.445312 262.382812 465.554688 261.988281 465.835938 C 261.371094 466.511719 260.6875 467.140625 259.933594 467.726562 C 258.421875 468.898438 256.789062 469.761719 255.039062 470.316406 C 252.796875 470.871094 251.414062 471.109375 250.894531 471.035156 C 249.929688 471.082031 248.933594 471.046875 247.910156 470.9375 C 245.953125 470.625 244.167969 470.050781 242.5625 469.210938 C 240.625 468.046875 239.519531 467.265625 239.234375 466.875 C 238.5625 466.257812 237.933594 465.570312 237.34375 464.820312 C 234.726562 461.183594 233.636719 457.40625 234.082031 453.488281 C 234.277344 451.535156 234.761719 449.734375 235.53125 448.085938 C 235.917969 447.261719 236.375 446.472656 236.902344 445.726562 C 237.085938 445.296875 238.035156 444.265625 239.746094 442.636719 C 242.589844 440.230469 246.039062 438.976562 250.09375 438.875 C 252.5625 439.066406 253.996094 439.265625 254.398438 439.476562 C 255.300781 439.71875 256.164062 440.03125 256.988281 440.417969 C 258.636719 441.1875 260.132812 442.246094 261.480469 443.59375 C 262.152344 444.265625 262.753906 444.976562 263.285156 445.726562 C 263.640625 446.050781 264.269531 447.261719 265.179688 449.351562 C 265.808594 451.074219 266.144531 452.953125 266.199219 454.980469 " fill-opacity="1" fill-rule="nonzero"/><path fill="#ffffff" d="M 197.042969 337.777344 L 196.898438 339.964844 C 196.585938 341.917969 196.011719 343.703125 195.171875 345.3125 C 194.753906 346.113281 194.265625 346.875 193.714844 347.59375 C 193.519531 348.007812 192.542969 348.984375 190.78125 350.527344 C 190.441406 350.917969 189.238281 351.621094 187.175781 352.640625 C 186.328125 352.996094 185.453125 353.269531 184.546875 353.46875 C 182.734375 353.867188 180.804688 353.957031 178.753906 353.734375 C 176.796875 353.425781 175.015625 352.851562 173.40625 352.011719 C 172.601562 351.589844 171.84375 351.105469 171.125 350.550781 C 170.710938 350.359375 169.734375 349.378906 168.191406 347.617188 C 165.574219 343.984375 164.484375 340.207031 164.929688 336.285156 C 165.125 334.332031 165.605469 332.535156 166.378906 330.882812 C 166.761719 330.058594 167.21875 329.273438 167.75 328.523438 C 167.933594 328.09375 168.878906 327.0625 170.589844 325.433594 C 173.433594 323.03125 176.886719 321.777344 180.941406 321.675781 C 182.96875 321.726562 184.84375 322.0625 186.570312 322.691406 C 187.046875 322.757812 188.253906 323.390625 190.195312 324.585938 C 190.941406 325.117188 191.652344 325.71875 192.328125 326.390625 C 193.671875 327.738281 194.730469 329.234375 195.503906 330.882812 C 196.339844 333.011719 196.757812 334.332031 196.75 334.851562 C 196.921875 335.789062 197.019531 336.765625 197.042969 337.777344 " fill-opacity="1" fill-rule="nonzero"/><path fill="#ffffff" d="M 186.613281 273.554688 L 186.464844 275.742188 C 185.867188 280.007812 183.78125 283.578125 180.203125 286.445312 C 177.015625 288.839844 173.28125 289.882812 169.003906 289.574219 C 164.550781 289.066406 160.96875 287.191406 158.253906 283.953125 C 158.03125 283.800781 157.597656 283.210938 156.945312 282.179688 L 156.242188 280.953125 C 155.8125 280.128906 155.457031 279.300781 155.175781 278.464844 C 154.617188 276.792969 154.359375 275.09375 154.40625 273.363281 C 154.554688 268.886719 156.132812 265.167969 159.132812 262.210938 C 162.246094 259.101562 166.039062 257.515625 170.507812 257.453125 C 172.808594 257.539062 174.828125 257.921875 176.566406 258.597656 C 179.050781 259.765625 180.828125 260.953125 181.894531 262.167969 C 183.472656 263.851562 184.53125 265.347656 185.070312 266.664062 C 185.832031 268.640625 186.226562 269.808594 186.261719 270.164062 C 186.46875 271.351562 186.585938 272.480469 186.613281 273.554688 " fill-opacity="1" fill-rule="nonzero"/><path fill="#ffffff" d="M 265.425781 266.132812 L 265.277344 268.316406 C 265.144531 269.265625 264.9375 270.179688 264.660156 271.058594 C 264.609375 271.542969 264.023438 272.78125 262.902344 274.78125 C 261.902344 276.332031 260.605469 277.746094 259.015625 279.023438 C 257.199219 280.234375 256.074219 280.882812 255.644531 280.964844 C 254.855469 281.296875 254.039062 281.5625 253.195312 281.761719 C 251.511719 282.15625 249.714844 282.289062 247.816406 282.152344 C 245.417969 281.75 244.027344 281.429688 243.652344 281.1875 C 242.792969 280.871094 241.972656 280.488281 241.199219 280.039062 C 239.710938 279.195312 238.273438 277.96875 236.886719 276.363281 C 234.371094 273.113281 233.148438 269.636719 233.21875 265.941406 C 233.285156 263.949219 233.632812 262.109375 234.261719 260.417969 C 235.171875 258.371094 235.804688 257.191406 236.15625 256.871094 C 236.679688 256.136719 237.277344 255.441406 237.945312 254.785156 C 238.25 254.347656 239.363281 253.480469 241.285156 252.183594 C 242.074219 251.71875 242.902344 251.328125 243.761719 251.015625 C 245.480469 250.382812 247.332031 250.054688 249.320312 250.027344 C 253.726562 250.117188 257.394531 251.554688 260.324219 254.339844 C 262.042969 256.089844 263.230469 257.722656 263.882812 259.238281 C 264.558594 260.996094 264.945312 262.113281 265.046875 262.589844 C 265.25 263.671875 265.378906 264.855469 265.425781 266.132812 " fill-opacity="1" fill-rule="nonzero"/><path fill="#ffffff" d="M 308.695312 356.875 L 308.546875 359.058594 C 308.40625 360.066406 308.160156 361.125 307.816406 362.234375 C 307.742188 362.566406 307.195312 363.664062 306.171875 365.523438 C 305.453125 366.757812 304.160156 368.171875 302.285156 369.761719 C 299.003906 372.183594 295.269531 373.226562 291.082031 372.890625 C 286.601562 372.394531 282.960938 370.464844 280.15625 367.105469 C 278.871094 365.28125 278.175781 364.171875 278.070312 363.78125 C 277.703125 363.023438 277.402344 362.257812 277.160156 361.480469 C 276.671875 360.144531 276.457031 358.324219 276.519531 356.023438 C 276.71875 353.699219 277.15625 351.859375 277.824219 350.511719 C 278.390625 349.273438 278.832031 348.421875 279.148438 347.953125 C 279.710938 347.152344 280.507812 346.226562 281.535156 345.171875 C 284.796875 342.226562 288.480469 340.761719 292.589844 340.769531 C 293.570312 340.789062 294.511719 340.875 295.417969 341.027344 C 295.917969 341.023438 297.195312 341.402344 299.25 342.167969 C 300.84375 342.871094 302.292969 343.84375 303.59375 345.082031 C 305.570312 347.191406 306.757812 348.824219 307.152344 349.980469 C 307.738281 351.480469 308.125 352.597656 308.316406 353.332031 C 308.492188 354.152344 308.617188 355.335938 308.695312 356.875 " fill-opacity="1" fill-rule="nonzero"/><path fill="#ffffff" d="M 308.695312 356.875 L 308.546875 359.058594 C 308.363281 360.253906 308.105469 361.359375 307.773438 362.375 C 307.613281 362.820312 307.082031 363.871094 306.171875 365.523438 C 305.160156 367.074219 303.863281 368.488281 302.285156 369.761719 C 300.828125 370.839844 299.28125 371.640625 297.640625 372.171875 C 296.824219 372.4375 295.984375 372.636719 295.121094 372.765625 C 294.714844 372.917969 293.371094 372.957031 291.082031 372.890625 C 290.089844 372.78125 289.132812 372.597656 288.222656 372.347656 C 287.710938 372.308594 286.4375 371.773438 284.390625 370.734375 C 282.8125 369.808594 281.402344 368.597656 280.15625 367.105469 C 277.484375 363.644531 276.273438 359.949219 276.519531 356.023438 C 276.832031 351.761719 278.503906 348.140625 281.535156 345.171875 C 282.984375 343.863281 284.519531 342.847656 286.136719 342.121094 C 286.945312 341.757812 287.773438 341.46875 288.625 341.253906 C 289.023438 341.054688 290.34375 340.890625 292.589844 340.769531 C 294.738281 340.71875 296.957031 341.183594 299.25 342.167969 C 300.519531 342.660156 301.96875 343.632812 303.59375 345.082031 C 305.351562 346.957031 306.484375 348.457031 306.992188 349.578125 C 307.648438 351.226562 308.089844 352.480469 308.316406 353.332031 C 308.519531 354.421875 308.644531 355.601562 308.695312 356.875 " fill-opacity="1" fill-rule="nonzero"/><path fill="#ffffff" d="M 419.75 277.035156 L 419.601562 279.21875 C 419.460938 280.226562 419.21875 281.285156 418.871094 282.394531 C 418.484375 283.355469 417.9375 284.453125 417.226562 285.683594 C 415.933594 287.546875 414.640625 288.960938 413.339844 289.925781 C 410.058594 292.34375 406.328125 293.386719 402.140625 293.054688 C 397.660156 292.554688 394.015625 290.625 391.210938 287.265625 C 389.925781 285.441406 389.230469 284.332031 389.128906 283.941406 C 388.761719 283.183594 388.457031 282.417969 388.21875 281.640625 C 387.726562 280.304688 387.511719 278.488281 387.578125 276.183594 C 387.777344 273.859375 388.210938 272.023438 388.882812 270.671875 C 389.445312 269.433594 389.886719 268.582031 390.203125 268.113281 C 390.765625 267.3125 391.5625 266.386719 392.59375 265.332031 C 395.851562 262.390625 399.539062 260.921875 403.644531 260.929688 C 405.605469 260.96875 407.417969 261.277344 409.082031 261.847656 C 411.105469 262.679688 412.273438 263.257812 412.589844 263.585938 C 413.3125 264.070312 414 264.625 414.652344 265.242188 C 416.101562 266.628906 417.285156 268.261719 418.210938 270.140625 C 418.792969 271.644531 419.183594 272.761719 419.375 273.492188 C 419.605469 274.839844 419.730469 276.019531 419.75 277.035156 " fill-opacity="1" fill-rule="nonzero"/><path fill="#ffffff" d="M 335.738281 161.78125 L 335.589844 163.964844 C 335.449219 164.972656 335.203125 166.03125 334.859375 167.140625 C 334.785156 167.476562 334.238281 168.570312 333.214844 170.429688 C 331.921875 172.292969 330.625 173.707031 329.328125 174.667969 C 326.046875 177.089844 322.3125 178.132812 318.128906 177.796875 C 313.644531 177.300781 310.003906 175.371094 307.199219 172.011719 C 305.914062 170.1875 305.21875 169.078125 305.117188 168.6875 C 304.75 167.929688 304.445312 167.164062 304.203125 166.386719 C 303.714844 165.050781 303.5 163.230469 303.5625 160.929688 C 303.761719 158.605469 304.199219 156.765625 304.867188 155.417969 C 305.433594 154.179688 305.875 153.328125 306.191406 152.859375 C 306.753906 152.058594 307.550781 151.132812 308.578125 150.078125 C 311.839844 147.132812 315.523438 145.667969 319.632812 145.675781 C 321.589844 145.714844 323.402344 146.023438 325.070312 146.59375 C 325.90625 146.878906 326.703125 147.234375 327.460938 147.652344 C 329.300781 148.816406 330.359375 149.597656 330.636719 149.988281 C 332.085938 151.375 333.273438 153.007812 334.195312 154.886719 C 334.78125 156.386719 335.167969 157.507812 335.359375 158.238281 C 335.589844 159.585938 335.714844 160.765625 335.738281 161.78125 " fill-opacity="1" fill-rule="nonzero"/></svg>