<svg xmlns="http://www.w3.org/2000/svg" xmlns:xlink="http://www.w3.org/1999/xlink" width="800" zoomAndPan="magnify" viewBox="0 0 600 599.999999" height="800" preserveAspectRatio="xMidYMid meet" version="1.0"><defs><clipPath id="4aadfbeecd"><path d="M 0 16.5 L 598 16.5 L 598 598 L 0 598 Z M 0 16.5 " clip-rule="nonzero"/></clipPath></defs><g clip-path="url(#4aadfbeecd)"><path fill="#ffffff" d="M 370.195312 420.234375 C 337.925781 445.363281 297.351562 460.328125 253.28125 460.328125 C 148.089844 460.328125 62.832031 375.066406 62.832031 269.875 C 62.832031 164.683594 148.089844 79.425781 253.28125 79.425781 C 358.472656 79.425781 443.734375 164.683594 443.734375 269.875 C 443.734375 307.554688 432.792969 342.675781 413.917969 372.238281 L 458.546875 415.570312 C 468.417969 409.675781 481.503906 410.847656 490.121094 419.1875 L 490.128906 419.195312 L 589.425781 515.5625 C 599.703125 525.515625 599.984375 542.074219 589.953125 552.433594 L 589.945312 552.441406 L 554.109375 589.355469 L 554.101562 589.363281 C 544.15625 599.628906 527.617188 599.902344 517.265625 589.960938 C 517.253906 589.949219 517.242188 589.9375 517.230469 589.925781 C 517.230469 589.925781 417.988281 493.5625 417.988281 493.5625 C 409.3125 485.207031 407.738281 472.164062 413.355469 462.117188 Z M 402.605469 388.109375 C 397.132812 395.007812 391.195312 401.519531 384.839844 407.59375 L 426.152344 447.683594 L 444.496094 428.785156 Z M 540.273438 575.945312 L 576.113281 539.027344 C 578.730469 536.320312 578.703125 532.003906 576.023438 529.40625 L 576.011719 529.398438 L 476.714844 433.03125 C 474.03125 430.4375 469.691406 430.492188 467.09375 433.171875 L 467.085938 433.183594 L 431.242188 470.105469 C 431.234375 470.113281 431.230469 470.117188 431.222656 470.125 C 428.621094 472.792969 428.675781 477.109375 431.363281 479.691406 C 431.375 479.703125 431.386719 479.714844 431.398438 479.726562 C 431.398438 479.726562 530.628906 576.078125 530.648438 576.097656 C 533.363281 578.671875 537.671875 578.628906 540.265625 575.953125 Z M 253.28125 98.691406 C 158.734375 98.691406 82.097656 175.324219 82.097656 269.875 C 82.097656 364.425781 158.734375 441.058594 253.28125 441.058594 C 347.832031 441.058594 424.464844 364.425781 424.464844 269.875 C 424.464844 175.324219 347.832031 98.691406 253.28125 98.691406 Z M 253.28125 121.59375 C 335.175781 121.59375 401.5625 187.980469 401.5625 269.875 C 401.5625 351.769531 335.175781 418.15625 253.28125 418.15625 C 171.386719 418.15625 105 351.769531 105 269.875 C 105 187.980469 171.386719 121.59375 253.28125 121.59375 Z M 253.28125 140.863281 C 182.027344 140.863281 124.269531 198.621094 124.269531 269.875 C 124.269531 341.128906 182.027344 398.886719 253.28125 398.886719 C 324.535156 398.886719 382.292969 341.128906 382.292969 269.875 C 382.292969 198.621094 324.535156 140.863281 253.28125 140.863281 Z M 275.667969 180.605469 L 275.671875 180.617188 L 349.910156 309.175781 L 349.914062 309.179688 C 354.601562 317.320312 354.601562 326.890625 349.90625 335.042969 L 349.898438 335.058594 C 345.1875 343.171875 336.894531 347.972656 327.5 347.972656 L 179.046875 347.972656 C 169.667969 347.972656 161.347656 343.164062 156.652344 335.035156 L 156.648438 335.03125 C 151.964844 326.890625 151.964844 317.320312 156.652344 309.175781 L 230.875 180.617188 C 235.566406 172.46875 243.890625 167.675781 253.273438 167.675781 C 262.679688 167.675781 270.972656 172.464844 275.667969 180.605469 Z M 258.972656 190.230469 C 257.78125 188.160156 255.667969 186.941406 253.273438 186.941406 C 250.886719 186.941406 248.769531 188.160156 247.570312 190.238281 L 173.347656 318.796875 C 172.148438 320.878906 172.148438 323.328125 173.34375 325.410156 C 174.542969 327.476562 176.660156 328.703125 179.046875 328.703125 L 327.5 328.703125 C 329.902344 328.703125 332.015625 327.46875 333.230469 325.386719 C 334.414062 323.308594 334.410156 320.871094 333.214844 318.796875 L 258.976562 190.238281 Z M 253.273438 289.460938 C 248.742188 289.460938 245.039062 285.882812 244.878906 281.351562 L 242.738281 222.488281 C 242.667969 220.113281 243.457031 218.046875 245.09375 216.339844 C 246.746094 214.628906 248.78125 213.765625 251.152344 213.765625 L 255.394531 213.765625 C 257.769531 213.765625 259.820312 214.628906 261.457031 216.339844 C 263.109375 218.046875 263.898438 220.113281 263.808594 222.488281 L 261.6875 281.351562 C 261.527344 285.882812 257.804688 289.460938 253.273438 289.460938 Z M 253.273438 317.097656 C 247.339844 317.097656 242.503906 312.261719 242.503906 306.328125 C 242.503906 300.394531 247.339844 295.558594 253.273438 295.558594 C 259.207031 295.558594 264.042969 300.394531 264.042969 306.328125 C 264.042969 312.261719 259.207031 317.097656 253.273438 317.097656 Z M 243.648438 26.195312 C 243.648438 20.875 247.964844 16.558594 253.28125 16.558594 C 258.601562 16.558594 262.917969 20.875 262.917969 26.195312 L 262.917969 55.835938 C 262.917969 61.15625 258.601562 65.472656 253.28125 65.472656 C 247.964844 65.472656 243.648438 61.15625 243.648438 55.835938 Z M 366.777344 54.023438 C 369.4375 49.417969 375.335938 47.835938 379.941406 50.496094 C 384.546875 53.15625 386.125 59.050781 383.464844 63.65625 L 368.644531 89.332031 C 365.984375 93.933594 360.089844 95.515625 355.484375 92.855469 C 350.878906 90.199219 349.296875 84.300781 351.957031 79.695312 Z M 459.5 139.691406 C 464.105469 137.03125 470 138.613281 472.660156 143.21875 C 475.320312 147.820312 473.738281 153.71875 469.132812 156.378906 L 443.460938 171.199219 C 438.855469 173.859375 432.957031 172.277344 430.300781 167.675781 C 427.640625 163.070312 429.222656 157.171875 433.828125 154.511719 Z M 496.964844 260.242188 C 502.28125 260.242188 506.597656 264.558594 506.597656 269.875 C 506.597656 275.195312 502.28125 279.507812 496.964844 279.507812 L 467.320312 279.507812 C 462.003906 279.507812 457.683594 275.195312 457.683594 269.875 C 457.683594 264.558594 462.003906 260.242188 467.320312 260.242188 Z M 123.097656 63.65625 C 120.4375 59.050781 122.019531 53.15625 126.625 50.496094 C 131.230469 47.835938 137.125 49.417969 139.785156 54.023438 L 154.605469 79.695312 C 157.265625 84.300781 155.6875 90.199219 151.082031 92.855469 C 146.476562 95.515625 140.578125 93.933594 137.917969 89.332031 Z M 37.429688 156.378906 C 32.824219 153.71875 31.242188 147.820312 33.902344 143.21875 C 36.5625 138.613281 42.457031 137.03125 47.0625 139.691406 L 72.738281 154.511719 C 77.34375 157.171875 78.921875 163.070312 76.261719 167.675781 C 73.605469 172.277344 67.707031 173.859375 63.101562 171.199219 Z M 9.601562 279.507812 C 4.28125 279.507812 -0.0351562 275.195312 -0.0351562 269.875 C -0.0351562 264.558594 4.28125 260.242188 9.601562 260.242188 L 39.242188 260.242188 C 44.5625 260.242188 48.878906 264.558594 48.878906 269.875 C 48.878906 275.195312 44.5625 279.507812 39.242188 279.507812 Z M 47.0625 400.058594 C 42.457031 402.71875 36.5625 401.140625 33.902344 396.535156 C 31.242188 391.929688 32.824219 386.03125 37.429688 383.371094 L 63.101562 368.550781 C 67.707031 365.890625 73.605469 367.472656 76.261719 372.078125 C 78.921875 376.679688 77.34375 382.578125 72.738281 385.238281 Z M 139.785156 485.726562 C 137.125 490.332031 131.230469 491.914062 126.625 489.253906 C 122.019531 486.59375 120.4375 480.699219 123.097656 476.09375 L 137.917969 450.421875 C 140.578125 445.816406 146.476562 444.234375 151.082031 446.894531 C 155.6875 449.550781 157.265625 455.449219 154.605469 460.054688 Z M 262.917969 513.558594 C 262.917969 518.875 258.601562 523.191406 253.28125 523.191406 C 247.964844 523.191406 243.648438 518.875 243.648438 513.558594 L 243.648438 483.914062 C 243.648438 478.597656 247.964844 474.277344 253.28125 474.277344 C 258.601562 474.277344 262.917969 478.597656 262.917969 483.914062 Z M 262.917969 513.558594 " fill-opacity="1" fill-rule="evenodd"/></g></svg>