<svg xmlns="http://www.w3.org/2000/svg" xmlns:xlink="http://www.w3.org/1999/xlink" width="800" zoomAndPan="magnify" viewBox="0 0 600 599.999999" height="800" preserveAspectRatio="xMidYMid meet" version="1.0"><defs><clipPath id="4ade27adb4"><path d="M 11 77.917969 L 592.894531 77.917969 L 592.894531 521.917969 L 11 521.917969 Z M 11 77.917969 " clip-rule="nonzero"/></clipPath></defs><g clip-path="url(#4ade27adb4)"><path fill="#ffffff" d="M 559.714844 77.929688 L 184.03125 77.929688 C 165.839844 77.929688 151.035156 92.734375 151.035156 110.929688 L 151.035156 114.933594 C 150.796875 114.933594 150.554688 114.921875 150.328125 114.921875 C 88.621094 114.921875 38.421875 165.117188 38.421875 226.824219 C 38.421875 257.015625 50.59375 285.773438 72.023438 306.769531 L 14.550781 406.34375 C 14.515625 406.414062 14.480469 406.472656 14.433594 406.539062 C 7.238281 419.804688 11.902344 436.675781 24.859375 444.144531 C 29.230469 446.667969 33.996094 447.863281 38.707031 447.863281 C 48.335938 447.863281 57.722656 442.867188 62.886719 433.949219 L 120.238281 334.625 C 130 337.351562 140.097656 338.730469 150.328125 338.730469 C 150.566406 338.730469 150.804688 338.71875 151.035156 338.71875 L 151.035156 489.050781 C 151.035156 507.242188 165.839844 522.046875 184.03125 522.046875 L 559.714844 522.046875 C 577.90625 522.046875 592.710938 507.242188 592.710938 489.050781 L 592.710938 110.929688 C 592.710938 92.734375 577.90625 77.929688 559.714844 77.929688 Z M 168.144531 110.929688 C 168.144531 102.167969 175.273438 95.039062 184.03125 95.039062 L 559.714844 95.039062 C 568.472656 95.039062 575.601562 102.167969 575.601562 110.929688 L 575.601562 140.046875 L 220.898438 140.046875 C 206 127.910156 187.933594 119.527344 168.144531 116.347656 Z M 119.0625 316.351562 C 115.183594 314.996094 110.886719 316.589844 108.832031 320.148438 L 48.058594 425.394531 C 45.140625 430.433594 38.433594 432.238281 33.402344 429.339844 C 28.441406 426.476562 26.664062 419.964844 29.421875 414.796875 L 90.261719 309.40625 C 92.316406 305.847656 91.550781 301.328125 88.4375 298.648438 C 67.519531 280.605469 55.519531 254.429688 55.519531 226.835938 C 55.519531 174.5625 98.042969 132.042969 150.316406 132.042969 C 202.589844 132.042969 245.113281 174.5625 245.113281 226.835938 C 245.113281 279.109375 202.589844 321.632812 150.316406 321.632812 C 139.617188 321.621094 129.101562 319.851562 119.0625 316.351562 Z M 240.539062 504.949219 L 212.730469 504.949219 L 212.730469 388.824219 L 240.539062 388.824219 Z M 313.160156 504.949219 L 285.351562 504.949219 L 285.351562 325.976562 L 313.160156 325.976562 Z M 385.769531 504.949219 L 357.964844 504.949219 L 357.964844 361.988281 L 385.769531 361.988281 Z M 458.394531 504.949219 L 430.585938 504.949219 L 430.585938 296.503906 L 458.394531 296.503906 Z M 559.714844 504.949219 L 548.125 504.949219 L 548.125 499.132812 C 548.125 494.410156 544.292969 490.578125 539.570312 490.578125 C 534.847656 490.578125 531.015625 494.410156 531.015625 499.132812 L 531.015625 504.949219 L 503.207031 504.949219 L 503.207031 499.132812 C 503.207031 494.410156 499.375 490.578125 494.652344 490.578125 C 489.929688 490.578125 486.097656 494.410156 486.097656 499.132812 L 486.097656 504.949219 L 475.503906 504.949219 L 475.503906 291.929688 C 475.503906 285.019531 469.878906 279.394531 462.96875 279.394531 L 426.023438 279.394531 C 419.113281 279.394531 413.488281 285.019531 413.488281 291.929688 L 413.488281 504.949219 L 402.890625 504.949219 L 402.890625 357.414062 C 402.890625 350.5 397.269531 344.878906 390.355469 344.878906 L 353.414062 344.878906 C 346.5 344.878906 340.878906 350.5 340.878906 357.414062 L 340.878906 504.949219 L 330.28125 504.949219 L 330.28125 321.40625 C 330.28125 314.492188 324.65625 308.871094 317.746094 308.871094 L 280.777344 308.871094 C 273.867188 308.871094 268.242188 314.492188 268.242188 321.40625 L 268.242188 504.949219 L 257.648438 504.949219 L 257.648438 384.253906 C 257.648438 377.339844 252.023438 371.714844 245.113281 371.714844 L 208.167969 371.714844 C 201.253906 371.714844 195.632812 377.339844 195.632812 384.253906 L 195.632812 504.949219 L 184.042969 504.949219 C 175.285156 504.949219 168.15625 497.824219 168.15625 489.0625 L 168.15625 337.304688 C 221.421875 328.738281 262.242188 282.464844 262.242188 226.824219 C 262.242188 200.511719 253.105469 176.285156 237.847656 157.15625 L 575.613281 157.15625 L 575.613281 489.0625 C 575.601562 497.824219 568.472656 504.949219 559.714844 504.949219 Z M 378.972656 117.542969 C 378.972656 112.820312 382.804688 108.988281 387.527344 108.988281 L 538.429688 108.988281 C 543.152344 108.988281 546.984375 112.820312 546.984375 117.542969 C 546.984375 122.265625 543.152344 126.097656 538.429688 126.097656 L 387.527344 126.097656 C 382.804688 126.097656 378.972656 122.265625 378.972656 117.542969 Z M 215.957031 126.097656 L 202.613281 126.097656 C 197.890625 126.097656 194.058594 122.265625 194.058594 117.542969 C 194.058594 112.820312 197.890625 108.988281 202.613281 108.988281 L 215.957031 108.988281 C 220.679688 108.988281 224.511719 112.820312 224.511719 117.542969 C 224.511719 122.265625 220.691406 126.097656 215.957031 126.097656 Z M 238.929688 117.542969 C 238.929688 112.820312 242.761719 108.988281 247.484375 108.988281 L 260.828125 108.988281 C 265.550781 108.988281 269.382812 112.820312 269.382812 117.542969 C 269.382812 122.265625 265.550781 126.097656 260.828125 126.097656 L 247.484375 126.097656 C 242.761719 126.097656 238.929688 122.265625 238.929688 117.542969 Z M 283.789062 117.542969 C 283.789062 112.820312 287.621094 108.988281 292.34375 108.988281 L 305.6875 108.988281 C 310.410156 108.988281 314.242188 112.820312 314.242188 117.542969 C 314.242188 122.265625 310.410156 126.097656 305.6875 126.097656 L 292.34375 126.097656 C 287.621094 126.097656 283.789062 122.265625 283.789062 117.542969 Z M 500.675781 217.835938 L 449.03125 239.53125 L 373.519531 304.148438 C 370.863281 306.417969 367.089844 306.851562 363.984375 305.21875 L 300.441406 271.914062 L 232.234375 330.953125 C 230.613281 332.355469 228.617188 333.039062 226.632812 333.039062 C 224.238281 333.039062 221.855469 332.035156 220.167969 330.085938 C 217.074219 326.515625 217.464844 321.109375 221.035156 318.015625 L 293.65625 255.167969 C 296.3125 252.867188 300.113281 252.433594 303.226562 254.0625 L 366.804688 287.390625 L 438.933594 225.671875 C 439.609375 225.089844 440.359375 224.625 441.183594 224.28125 L 495.328125 201.539062 L 487.421875 198.046875 C 483.097656 196.144531 481.136719 191.089844 483.054688 186.765625 C 484.957031 182.445312 490.011719 180.484375 494.335938 182.398438 L 520.570312 193.976562 C 524.890625 195.878906 526.851562 200.933594 524.9375 205.257812 L 513.359375 231.492188 C 511.945312 234.683594 508.820312 236.589844 505.523438 236.589844 C 504.371094 236.589844 503.195312 236.347656 502.078125 235.859375 C 497.757812 233.953125 495.792969 228.902344 497.710938 224.578125 Z M 150.328125 144.199219 C 104.773438 144.199219 67.703125 181.269531 67.703125 226.824219 C 67.703125 272.382812 104.773438 309.449219 150.328125 309.449219 C 195.882812 309.449219 232.953125 272.382812 232.953125 226.824219 C 232.953125 181.269531 195.882812 144.199219 150.328125 144.199219 Z M 150.328125 292.34375 C 114.203125 292.34375 84.8125 262.949219 84.8125 226.824219 C 84.8125 190.703125 114.203125 161.308594 150.328125 161.308594 C 186.449219 161.308594 215.84375 190.703125 215.84375 226.824219 C 215.84375 262.949219 186.449219 292.34375 150.328125 292.34375 Z M 548.125 283.195312 L 548.125 304.03125 C 548.125 308.753906 544.292969 312.585938 539.570312 312.585938 C 534.847656 312.585938 531.015625 308.753906 531.015625 304.03125 L 531.015625 283.195312 C 531.015625 278.472656 534.847656 274.640625 539.570312 274.640625 C 544.292969 274.640625 548.125 278.460938 548.125 283.195312 Z M 503.207031 337.179688 L 503.207031 358.019531 C 503.207031 362.738281 499.375 366.574219 494.652344 366.574219 C 489.933594 366.574219 486.097656 362.738281 486.097656 358.019531 L 486.097656 337.179688 C 486.097656 332.457031 489.933594 328.625 494.652344 328.625 C 499.375 328.625 503.207031 332.445312 503.207031 337.179688 Z M 503.207031 445.148438 L 503.207031 465.988281 C 503.207031 470.710938 499.375 474.542969 494.652344 474.542969 C 489.933594 474.542969 486.097656 470.710938 486.097656 465.988281 L 486.097656 445.148438 C 486.097656 440.425781 489.933594 436.59375 494.652344 436.59375 C 499.375 436.59375 503.207031 440.425781 503.207031 445.148438 Z M 503.207031 391.164062 L 503.207031 412.003906 C 503.207031 416.726562 499.375 420.558594 494.652344 420.558594 C 489.933594 420.558594 486.097656 416.726562 486.097656 412.003906 L 486.097656 391.164062 C 486.097656 386.441406 489.933594 382.609375 494.652344 382.609375 C 499.375 382.609375 503.207031 386.441406 503.207031 391.164062 Z M 503.207031 283.195312 L 503.207031 304.03125 C 503.207031 308.753906 499.375 312.585938 494.652344 312.585938 C 489.933594 312.585938 486.097656 308.753906 486.097656 304.03125 L 486.097656 283.195312 C 486.097656 278.472656 489.933594 274.640625 494.652344 274.640625 C 499.375 274.640625 503.207031 278.460938 503.207031 283.195312 Z M 548.125 337.179688 L 548.125 358.019531 C 548.125 362.738281 544.292969 366.574219 539.570312 366.574219 C 534.847656 366.574219 531.015625 362.738281 531.015625 358.019531 L 531.015625 337.179688 C 531.015625 332.457031 534.847656 328.625 539.570312 328.625 C 544.292969 328.625 548.125 332.445312 548.125 337.179688 Z M 527.527344 265.992188 L 506.6875 265.992188 C 501.964844 265.992188 498.132812 262.160156 498.132812 257.4375 C 498.132812 252.71875 501.964844 248.886719 506.6875 248.886719 L 527.527344 248.886719 C 532.25 248.886719 536.082031 252.71875 536.082031 257.4375 C 536.082031 262.160156 532.257812 265.992188 527.527344 265.992188 Z M 548.125 445.148438 L 548.125 465.988281 C 548.125 470.710938 544.292969 474.542969 539.570312 474.542969 C 534.847656 474.542969 531.015625 470.710938 531.015625 465.988281 L 531.015625 445.148438 C 531.015625 440.425781 534.847656 436.59375 539.570312 436.59375 C 544.292969 436.59375 548.125 440.425781 548.125 445.148438 Z M 548.125 391.164062 L 548.125 412.003906 C 548.125 416.726562 544.292969 420.558594 539.570312 420.558594 C 534.847656 420.558594 531.015625 416.726562 531.015625 412.003906 L 531.015625 391.164062 C 531.015625 386.441406 534.847656 382.609375 539.570312 382.609375 C 544.292969 382.609375 548.125 386.441406 548.125 391.164062 Z M 548.125 391.164062 " fill-opacity="1" fill-rule="nonzero"/></g></svg>